<svg xmlns="http://www.w3.org/2000/svg" viewBox="0 0 32 32" width="32" height="32">
  <defs>
    <linearGradient id="brainGradient" x1="0%" y1="0%" x2="100%" y2="100%">
      <stop offset="0%" style="stop-color:#E0E0E0;stop-opacity:1" />
      <stop offset="100%" style="stop-color:#888888;stop-opacity:1" />
    </linearGradient>
  </defs>
  
  <!-- Background circle -->
  <circle cx="16" cy="16" r="15" fill="#121212" stroke="#444444" stroke-width="1"/>
  
  <!-- Brain/AI icon -->
  <path d="M8 12c0-2 1-3 3-3s3 1 3 3c0 1-1 2-2 2s-2-1-2-2zm8 0c0-2 1-3 3-3s3 1 3 3c0 1-1 2-2 2s-2-1-2-2zm-4 4c0-1 1-2 2-2s2 1 2 2c0 1-1 2-2 2s-2-1-2-2z" fill="url(#brainGradient)"/>
  
  <!-- Neural network connections -->
  <path d="M12 12l4 4m4-4l-4 4" stroke="url(#brainGradient)" stroke-width="1" fill="none" opacity="0.6"/>
  
  <!-- AI sparkle -->
  <circle cx="24" cy="8" r="1.5" fill="#888888" opacity="0.8"/>
  <circle cx="26" cy="10" r="1" fill="#888888" opacity="0.6"/>
  <circle cx="22" cy="6" r="0.8" fill="#888888" opacity="0.7"/>
</svg>
